<?xml version="1.0" encoding="utf-8"?>
<!-- Generator: Adobe Illustrator 19.2.0, SVG Export Plug-In . SVG Version: 6.00 Build 0)  -->
<svg version="1.1" id="Layer_1" xmlns="http://www.w3.org/2000/svg" xmlns:xlink="http://www.w3.org/1999/xlink" x="0px" y="0px"
	 viewBox="0 0 202.8 39.7" style="enable-background:new 0 0 202.8 39.7;" xml:space="preserve">
<style type="text/css">
	.st0{fill:#BBA36C;}
	.st1{fill:none;}
	.st2{fill:#532D6D;}
</style>
<g>
	<g>
		<path class="st0" d="M55.7,29.7h1.4v9.9h-1.4v-4.3h-5.6v4.3h-1.4v-9.9h1.4V34h5.6V29.7z"/>
		<path class="st0" d="M65.4,29.6h1l4.5,10h-1.5L68,36.7h-4.2l-1.2,2.9h-1.5L65.4,29.6z M67.4,35.4l-1.6-3.6l-1.5,3.6H67.4z"/>
		<path class="st0" d="M74.8,39.6v-9.9h2.5c1,0,1.8,0.2,2.4,0.7s0.9,1.2,0.9,2c0,0.6-0.1,1.1-0.4,1.5s-0.7,0.7-1.2,0.9
			c0.3,0.2,0.6,0.5,0.9,0.9s0.7,1,1.3,1.9c0.3,0.6,0.6,1,0.8,1.3l0.5,0.7h-1.7l-0.4-0.7c0,0,0-0.1-0.1-0.1L80,38.4l-0.4-0.7
			l-0.5-0.8c-0.3-0.4-0.6-0.7-0.8-1c-0.2-0.2-0.5-0.4-0.7-0.5s-0.5-0.2-1-0.2h-0.4v4.3L74.8,39.6L74.8,39.6z M76.7,30.9h-0.4V34h0.5
			c0.7,0,1.2-0.1,1.5-0.2c0.3-0.1,0.5-0.3,0.6-0.6c0.2-0.2,0.2-0.5,0.2-0.8c0-0.3-0.1-0.6-0.2-0.9c-0.2-0.3-0.4-0.4-0.7-0.5
			S77.4,30.9,76.7,30.9z"/>
		<path class="st0" d="M86.5,39.6v-9.9H89c1,0,1.8,0.2,2.4,0.7s0.9,1.2,0.9,2c0,0.6-0.1,1.1-0.4,1.5s-0.7,0.7-1.2,0.9
			c0.3,0.2,0.6,0.5,0.9,0.9s0.7,1,1.3,1.9c0.3,0.6,0.6,1,0.8,1.3l0.5,0.7h-1.7l-0.4-0.7c0,0,0-0.1-0.1-0.1l-0.3-0.4l-0.4-0.7
			l-0.5-0.8c-0.3-0.4-0.6-0.7-0.8-1c-0.2-0.2-0.5-0.4-0.7-0.5s-0.5-0.2-1-0.2H88v4.3L86.5,39.6L86.5,39.6z M88.4,30.9H88V34h0.5
			c0.7,0,1.2-0.1,1.5-0.2c0.3-0.1,0.5-0.3,0.6-0.6c0.2-0.2,0.2-0.5,0.2-0.8c0-0.3-0.1-0.6-0.2-0.9c-0.2-0.3-0.4-0.4-0.7-0.5
			C89.6,30.9,89.1,30.9,88.4,30.9z"/>
		<path class="st0" d="M102.2,29.5c1.5,0,2.8,0.5,3.8,1.5s1.5,2.2,1.5,3.7s-0.5,2.7-1.5,3.6c-1,1-2.3,1.4-3.9,1.4
			c-1.5,0-2.7-0.5-3.7-1.4c-1-1-1.5-2.2-1.5-3.6c0-1.5,0.5-2.7,1.5-3.7S100.7,29.5,102.2,29.5z M102.3,30.9c-1.1,0-2.1,0.4-2.8,1.1
			c-0.7,0.7-1.1,1.6-1.1,2.7s0.4,2,1.1,2.7c0.7,0.7,1.7,1.1,2.8,1.1c1.1,0,2-0.4,2.8-1.1c0.7-0.7,1.1-1.6,1.1-2.7
			c0-1.1-0.4-1.9-1.1-2.7C104.2,31.2,103.3,30.9,102.3,30.9z"/>
		<path class="st0" d="M117.6,34.7h3.3v4.2c-1.2,0.5-2.4,0.8-3.6,0.8c-1.6,0-3-0.5-3.9-1.4c-1-1-1.5-2.1-1.5-3.5
			c0-1.5,0.5-2.7,1.5-3.7c1-1,2.3-1.5,3.8-1.5c0.6,0,1.1,0.1,1.6,0.2c0.5,0.1,1.1,0.3,1.9,0.7v1.4c-1.2-0.7-2.4-1-3.5-1
			s-2,0.4-2.7,1.1c-0.7,0.7-1.1,1.6-1.1,2.7s0.4,2,1.1,2.8c0.7,0.7,1.7,1.1,2.9,1.1c0.6,0,1.2-0.1,2-0.4h0.1v-2.1h-1.9L117.6,34.7
			L117.6,34.7z"/>
		<path class="st0" d="M129.1,29.6h1l4.5,10h-1.5l-1.3-2.9h-4.2l-1.2,2.9h-1.5L129.1,29.6z M131.2,35.4l-1.6-3.6l-1.5,3.6H131.2z"/>
		<path class="st0" d="M136.2,29.7h8.3v1.2H141v8.7h-1.4v-8.7h-3.4L136.2,29.7L136.2,29.7z"/>
		<path class="st0" d="M148.8,29.7h5.6v1.2h-4.2v3h4.1v1.3h-4.1v3.1h4.3v1.3h-5.8L148.8,29.7L148.8,29.7z"/>
	</g>
	<g>
		<line class="st1" x1="0" y1="34.8" x2="40" y2="34.8"/>
		<rect y="34.2" class="st0" width="40" height="1.2"/>
	</g>
	<g>
		<line class="st1" x1="162.8" y1="34.8" x2="202.8" y2="34.8"/>
		<rect x="162.8" y="34.2" class="st0" width="40" height="1.2"/>
	</g>
</g>
<g>
	<path class="st2" d="M0.6,17.9V0.3h7.8c1.6,0,2.8,0.2,3.6,0.5c0.8,0.3,1.5,0.9,1.9,1.7c0.5,0.8,0.7,1.7,0.7,2.6
		c0,1.2-0.4,2.3-1.2,3.1c-0.8,0.9-2,1.4-3.7,1.6c0.6,0.3,1.1,0.6,1.4,0.9c0.7,0.6,1.3,1.4,1.9,2.3l3.1,4.8h-2.9l-2.3-3.6
		c-0.7-1.1-1.2-1.9-1.7-2.4c-0.4-0.6-0.8-0.9-1.2-1.2c-0.3-0.2-0.7-0.4-1.1-0.5C6.6,10,6.2,10,5.6,10H2.9v7.9H0.6z M2.9,8.1h5
		C9,8.1,9.8,8,10.4,7.8c0.6-0.2,1.1-0.6,1.4-1.1s0.5-1,0.5-1.6c0-0.8-0.3-1.5-0.9-2S9.8,2.3,8.5,2.3H2.9V8.1z"/>
	<path class="st2" d="M31.4,0.3h2.3v10.1c0,1.8-0.2,3.2-0.6,4.2c-0.4,1-1.1,1.9-2.2,2.5c-1,0.6-2.4,1-4.1,1c-1.6,0-3-0.3-4-0.8
		c-1-0.6-1.8-1.4-2.2-2.5s-0.7-2.5-0.7-4.4V0.3h2.3v10.1c0,1.5,0.1,2.6,0.4,3.4c0.3,0.7,0.8,1.3,1.5,1.7s1.5,0.6,2.5,0.6
		c1.7,0,2.9-0.4,3.6-1.2c0.7-0.8,1.1-2.3,1.1-4.5V0.3H31.4z"/>
	<path class="st2" d="M39.2,17.9V0.3h6c1.4,0,2.4,0.1,3.1,0.3c1,0.2,1.9,0.7,2.6,1.3c0.9,0.8,1.6,1.8,2.1,3s0.7,2.6,0.7,4.2
		c0,1.3-0.2,2.5-0.5,3.5s-0.7,1.9-1.2,2.6c-0.5,0.7-1,1.2-1.6,1.6c-0.6,0.4-1.3,0.7-2.1,0.9c-0.8,0.2-1.8,0.3-2.8,0.3L39.2,17.9
		L39.2,17.9z M41.6,15.8h3.7c1.2,0,2.1-0.1,2.7-0.3c0.7-0.2,1.2-0.5,1.6-0.9c0.6-0.6,1-1.3,1.3-2.2c0.3-0.9,0.5-2.1,0.5-3.4
		c0-1.8-0.3-3.2-0.9-4.2c-0.6-1-1.3-1.6-2.2-2c-0.6-0.2-1.6-0.4-3-0.4h-3.7C41.6,2.4,41.6,15.8,41.6,15.8z"/>
	<path class="st2" d="M58.6,17.9V0.3h6c1.4,0,2.4,0.1,3.1,0.3c1,0.2,1.9,0.7,2.6,1.3c0.9,0.8,1.6,1.8,2.1,3s0.7,2.6,0.7,4.2
		c0,1.3-0.2,2.5-0.5,3.5s-0.7,1.9-1.2,2.6c-0.5,0.7-1,1.2-1.6,1.6c-0.6,0.4-1.3,0.7-2.1,0.9c-0.8,0.1-1.7,0.2-2.8,0.2H58.6z
		 M60.9,15.8h3.7c1.2,0,2.1-0.1,2.7-0.3c0.7-0.2,1.2-0.5,1.6-0.9c0.6-0.6,1-1.3,1.3-2.2c0.3-0.9,0.5-2.1,0.5-3.4
		c0-1.8-0.3-3.2-0.9-4.2c-0.6-1-1.3-1.6-2.2-2c-0.6-0.2-1.6-0.4-3-0.4h-3.7V15.8z"/>
	<path class="st2" d="M78.3,17.9V0.3h2.3v17.6H78.3z"/>
	<path class="st2" d="M86.3,17.9V0.3h2.4l9.2,13.8V0.3h2.2v17.6h-2.4L88.5,4.1v13.8H86.3z"/>
	<path class="st2" d="M113.9,11V8.9h7.4v6.5c-1.1,0.9-2.3,1.6-3.5,2.1s-2.5,0.7-3.7,0.7c-1.7,0-3.3-0.4-4.7-1.1
		c-1.4-0.7-2.5-1.8-3.2-3.2s-1.1-3-1.1-4.7s0.4-3.3,1.1-4.8s1.7-2.6,3.1-3.3c1.3-0.7,2.9-1.1,4.6-1.1c1.3,0,2.4,0.2,3.4,0.6
		s1.8,1,2.4,1.7c0.6,0.7,1,1.7,1.3,2.9l-2.1,0.6c-0.3-0.9-0.6-1.6-1-2.1s-0.9-0.9-1.7-1.2c-0.7-0.3-1.5-0.5-2.4-0.5
		c-1.1,0-2,0.2-2.8,0.5s-1.4,0.7-1.9,1.3c-0.5,0.5-0.8,1.1-1.1,1.7c-0.4,1.1-0.7,2.3-0.7,3.5c0,1.6,0.3,2.9,0.8,3.9
		c0.5,1.1,1.3,1.8,2.4,2.3c1,0.5,2.1,0.8,3.3,0.8c1,0,2-0.2,2.9-0.6c1-0.4,1.7-0.8,2.2-1.2v-3.3h-5V11z"/>
	<path class="st2" d="M134.8,17.9V0.3h6.6c1.2,0,2.1,0.1,2.7,0.2c0.9,0.1,1.6,0.4,2.2,0.8c0.6,0.4,1.1,1,1.4,1.7
		c0.4,0.7,0.5,1.5,0.5,2.4c0,1.5-0.5,2.8-1.4,3.8s-2.7,1.5-5.1,1.5h-4.5v7.2H134.8z M137.2,8.7h4.5c1.5,0,2.6-0.3,3.2-0.8
		c0.6-0.6,0.9-1.3,0.9-2.4c0-0.7-0.2-1.4-0.6-1.9c-0.4-0.5-0.9-0.9-1.5-1c-0.4-0.1-1.1-0.2-2.2-0.2H137v6.3H137.2z"/>
	<path class="st2" d="M149.1,17.9l6.7-17.5h2.5l7.2,17.5h-2.6l-2-5.3h-7.3l-1.9,5.3H149.1z M154.1,10.7h5.9l-1.8-4.9
		c-0.6-1.5-1-2.7-1.2-3.6c-0.2,1.1-0.5,2.2-0.9,3.3L154.1,10.7z"/>
	<path class="st2" d="M169,17.9V0.3h7.8c1.6,0,2.8,0.2,3.6,0.5s1.5,0.9,1.9,1.7c0.5,0.8,0.7,1.7,0.7,2.6c0,1.2-0.4,2.3-1.2,3.1
		c-0.8,0.9-2,1.4-3.7,1.6c0.6,0.3,1.1,0.6,1.4,0.9c0.7,0.6,1.3,1.4,1.9,2.3l3.1,4.8h-2.9l-2.3-3.6c-0.7-1.1-1.2-1.9-1.7-2.4
		c-0.4-0.6-0.8-0.9-1.2-1.2c-0.3-0.2-0.7-0.4-1.1-0.5C175,10,174.6,10,174,10h-2.7v7.9H169z M171.3,8.1h5c1.1,0,1.9-0.1,2.5-0.3
		c0.6-0.2,1.1-0.6,1.4-1.1c0.3-0.5,0.5-1,0.5-1.6c0-0.8-0.3-1.5-0.9-2c-0.6-0.5-1.6-0.8-2.9-0.8h-5.6V8.1z"/>
	<path class="st2" d="M188.2,17.9V0.3h2.3V9l8.7-8.7h3.1l-7.4,7.1l7.7,10.4h-3.1l-6.2-8.9l-2.9,2.8v6.2H188.2z"/>
</g>
</svg>
